# xmcd
#
# Track frame offsets:
#	150
#	19311
#	37154
#	55592
#	72103
#	88094
#	106399
#	123962
#	142879
#	161605
#	179938
#	197250
#	213324
#
# Disc length: 3026 seconds
#
# Revision: 1
# Processed by: cddbd v1.4PL0 Copyright (c) Steve Scherf et al.
# Submitted via: EasyCDDAExtractor 5.0.6
#
DISCID=b60bd00d
DTITLE=Manuel Carrasco - Quiéreme
DYEAR=2003
DGENRE=
TTITLE0=Que corra el aire
TTITLE1=Dime si te irás
TTITLE2=Quiéreme
TTITLE3=A mí me duele
TTITLE4=Tú serás pa mí
TTITLE5=Después de estar conmigo
TTITLE6=Lo bello de mirarte
TTITLE7=Sólo quiero un beso
TTITLE8=Ama a María
TTITLE9=Una historia de amor
TTITLE10=Ya no es lo mismo
TTITLE11=Miénteme
TTITLE12=Viviré, moriré
EXTD=
EXTT0=
EXTT1=
EXTT2=
EXTT3=
EXTT4=
EXTT5=
EXTT6=
EXTT7=
EXTT8=
EXTT9=
EXTT10=
EXTT11=
EXTT12=
PLAYORDER=
